<?xml version="1.0" encoding="UTF-8"?>
<svg version="1.1" xmlns="http://www.w3.org/2000/svg" width="128" height="128">
<path d="M0 0 C1.7777947 -0.00337499 3.55558715 -0.00823327 5.33337402 -0.01449585 C9.04522844 -0.02183506 12.75647806 -0.01125777 16.46826172 0.01220703 C21.20259504 0.0406934 25.93551074 0.02427344 30.66979218 -0.00565529 C34.33667491 -0.02380869 38.00322701 -0.01793363 41.67012024 -0.00501633 C43.41465934 -0.00170447 45.15922945 -0.00569035 46.9037323 -0.01741409 C57.44226518 -0.07271171 66.62157914 0.09872219 74.78186035 7.62435913 C80.95312206 13.93292861 83.12019722 20.99669907 83.04443359 29.69726562 C83.04969055 30.45611557 83.05494751 31.21496552 83.06036377 31.99681091 C83.07345782 34.47986053 83.06486383 36.96225753 83.0546875 39.4453125 C83.05671129 41.18591432 83.05962526 42.92651532 83.06338501 44.66711426 C83.06779401 48.30501422 83.0614234 51.94269235 83.04736328 55.58056641 C83.03027221 60.22740592 83.04012105 64.87372549 83.05808067 69.52054596 C83.06895713 73.11179472 83.06545451 76.70292162 83.0576973 80.29417419 C83.05570595 82.00687218 83.05811684 83.71958148 83.06513596 85.43226624 C83.07281444 87.83209247 83.06105805 90.23109405 83.04443359 92.63085938 C83.05050629 93.32823715 83.05657898 94.02561493 83.06283569 94.74412537 C82.96736967 102.23917405 80.51993556 108.54017352 75.46875 114.05859375 C68.76067426 120.00044533 62.00680629 121.81108845 53.26074219 121.82519531 C52.52198349 121.83016022 51.78322479 121.83512512 51.02207947 121.84024048 C48.58241842 121.85482299 46.14282244 121.86165819 43.703125 121.8671875 C42.00164794 121.87294295 40.30017089 121.87870064 38.59869385 121.88446045 C35.03112487 121.89495986 31.46357835 121.9008092 27.89599609 121.90429688 C23.33877025 121.90977394 18.78184433 121.93378952 14.22471237 121.96226883 C10.70897574 121.98095324 7.19331045 121.98610393 3.67752838 121.98763275 C1.99830743 121.99064762 0.31908739 121.99863653 -1.36008453 122.01181793 C-3.71717192 122.02899756 -6.07353836 122.0269694 -8.43066406 122.02050781 C-9.11562454 122.0297226 -9.80058502 122.03893738 -10.50630188 122.0484314 C-17.98955593 121.98462039 -24.53931161 119.3328499 -30.34375 114.6640625 C-36.10894657 108.09891042 -38.64887661 102.70395733 -38.6184082 93.87963867 C-38.62351913 93.11147324 -38.62863007 92.3433078 -38.63389587 91.55186462 C-38.64776045 89.02017353 -38.64683713 86.48875573 -38.64453125 83.95703125 C-38.64842061 82.18972168 -38.65275578 80.42241303 -38.65751648 78.65510559 C-38.66497248 74.95224986 -38.66469243 71.24948947 -38.65942383 67.54663086 C-38.65363764 62.81565709 -38.67054256 58.0850759 -38.6937685 53.35416698 C-38.70854681 49.7037378 -38.70937185 46.05340218 -38.70625877 42.40294838 C-38.70677018 40.65954119 -38.71197379 38.9161285 -38.72207069 37.17275047 C-38.73449414 34.72713601 -38.72760806 32.28227357 -38.71606445 29.83666992 C-38.72370819 29.12522827 -38.73135193 28.41378662 -38.73922729 27.68078613 C-38.65720908 19.76576383 -35.99934675 13.27738521 -30.46936035 7.62435913 C-21.62475398 -0.53238138 -11.31632031 -0.07605009 0 0 Z M-26.15625 11.1015625 C-26.878125 11.9471875 -27.6 12.7928125 -28.34375 13.6640625 C-28.900625 14.2621875 -29.4575 14.8603125 -30.03125 15.4765625 C-34.70162837 23.26052645 -33.65365584 32.91297597 -33.64453125 41.66015625 C-33.6484252 43.21900037 -33.6527613 44.77784345 -33.65751648 46.33668518 C-33.66494995 49.59371388 -33.66470818 52.85063413 -33.65942383 56.10766602 C-33.65362996 60.26115925 -33.67057197 64.41420644 -33.6937685 68.567626 C-33.70856906 71.78402763 -33.70936904 75.00032335 -33.70625877 78.21675301 C-33.70676871 79.74721218 -33.7119443 81.2776778 -33.72207069 82.80810356 C-33.77813358 92.46385696 -33.6023464 100.72961653 -28.15625 108.9765625 C-19.70977083 117.0476426 -10.51352096 116.25515343 0.4375 116.1953125 C2.17810279 116.19801089 3.9187041 116.20189619 5.65930176 116.20690918 C9.29726595 116.21278795 12.93483577 116.20429392 16.57275391 116.18554688 C21.21973314 116.16275809 25.86578808 116.17588993 30.51273346 116.19983673 C34.10401282 116.2143388 37.69507556 116.20966861 41.28636169 116.19932556 C42.99906017 116.19667043 44.71177877 116.19988501 46.42445374 116.20924377 C59.81838884 116.60205169 59.81838884 116.60205169 71.15270996 110.21691895 C77.02064027 103.60698877 77.76837171 97.33555593 77.81738281 88.69995117 C77.82234772 88.03078171 77.82731262 87.36161224 77.83242798 86.67216492 C77.84693974 84.47544293 77.85383292 82.27879314 77.859375 80.08203125 C77.86220238 79.32648767 77.86502975 78.5709441 77.86794281 77.79250526 C77.88289049 73.794528 77.89214799 69.79658641 77.89648438 65.79858398 C77.90196411 61.68990123 77.92599413 57.58155067 77.95445633 53.47297192 C77.97316867 50.29432752 77.97829285 47.11576183 77.97982025 43.93706703 C77.98282767 42.42334489 77.99079087 40.90962349 78.00400543 39.39595604 C78.19937899 24.84316721 78.19937899 24.84316721 71.46875 12.2890625 C70.93894531 11.66257812 70.40914063 11.03609375 69.86328125 10.390625 C61.95435835 4.20346762 52.24274393 5.22455884 42.75 5.265625 C41.0990791 5.26360092 39.44815907 5.2606867 37.79724121 5.25692749 C34.34765051 5.25251985 30.89829383 5.25888462 27.44873047 5.27294922 C23.04401771 5.29004028 18.6398535 5.28019069 14.23516083 5.26223183 C10.82920252 5.25135163 7.42337262 5.25485967 4.01741028 5.2626152 C2.39402704 5.26460552 0.77063184 5.26219933 -0.85273743 5.25517654 C-14.43240027 4.94281942 -14.43240027 4.94281942 -26.15625 11.1015625 Z " fill="#0F2541" transform="translate(41.34375,2.3359375)"/>
<path d="M0 0 C0.22479546 7.50775207 -0.45092098 14.69638637 -1.5 22.125 C-1.64308594 23.176875 -1.78617187 24.22875 -1.93359375 25.3125 C-2.28314497 27.87587562 -2.63870406 30.43825808 -3 33 C-6.057952 31.26440562 -8.63379989 29.61527381 -11 27 C-16.86714062 33.22165063 -22.04847001 39.86553981 -27.16674805 46.70678711 C-38.34872455 61.56964804 -38.34872455 61.56964804 -43.6953125 62.4375 C-48.44643965 61.80850917 -50.58070963 59.30919667 -53.875 56 C-54.76445313 55.14148438 -54.76445313 55.14148438 -55.671875 54.265625 C-57.12748978 52.85696554 -58.56554376 51.43019969 -60 50 C-66.15989671 54.2273801 -71.23429191 59.08895759 -76.3425293 64.50463867 C-79.35687852 67.63258136 -81.70844148 69.75791627 -86 71 C-83.75030066 64.83740508 -80.19416184 59.40767397 -76.80566406 53.82470703 C-75.6274599 51.87906219 -74.46199898 49.92615459 -73.296875 47.97265625 C-72.54503994 46.7287015 -71.79246063 45.4851962 -71.0390625 44.2421875 C-70.36053223 43.1166748 -69.68200195 41.99116211 -68.98291016 40.83154297 C-67.13841031 38.19764625 -65.7656023 36.59702313 -63 35 C-58.09076527 34.93947519 -55.61163329 36.78258939 -52.20703125 39.99804688 C-51.68496094 40.51431641 -51.16289063 41.03058594 -50.625 41.5625 C-50.07972656 42.08263672 -49.53445312 42.60277344 -48.97265625 43.13867188 C-47.63791788 44.41486909 -46.31746829 45.70598179 -45 47 C-40.61420016 42.86833062 -37.04925998 38.31290915 -33.4375 33.5 C-32.31167742 32.01005423 -31.18538685 30.52046194 -30.05859375 29.03125 C-29.53507324 28.33257812 -29.01155273 27.63390625 -28.47216797 26.9140625 C-27.21717828 25.28236778 -25.88341283 23.71176631 -24.53515625 22.15625 C-24.02855469 21.4446875 -23.52195313 20.733125 -23 20 C-24.24546405 16.26360784 -25.63404953 15.81243487 -29 14 C-28 11 -28 11 -25.53149414 9.6496582 C-24.46020264 9.20452881 -23.38891113 8.75939941 -22.28515625 8.30078125 C-20.54395508 7.57084961 -20.54395508 7.57084961 -18.76757812 6.82617188 C-18.15986572 6.57794678 -17.55215332 6.32972168 -16.92602539 6.07397461 C-15.06885537 5.31509693 -13.2186805 4.54093627 -11.36914062 3.76367188 C-2.30919351 0 -2.30919351 0 0 0 Z " fill="#1A6AE4" transform="translate(106,21)"/>
<path d="M0 0 C1.14270716 4.37469233 0.95637123 8.47641488 0.625 12.9375 C0.58117187 13.62779297 0.53734375 14.31808594 0.4921875 15.02929688 C0.21635346 19.07103171 -0.26446884 23.01691176 -1 27 C-4.07884573 25.25254702 -6.55961387 23.55489105 -9 21 C-14.86714062 27.22165063 -20.04847001 33.86553981 -25.16674805 40.70678711 C-36.34872455 55.56964804 -36.34872455 55.56964804 -41.6953125 56.4375 C-46.44643965 55.80850917 -48.58070963 53.30919667 -51.875 50 C-52.76445313 49.14148438 -52.76445313 49.14148438 -53.671875 48.265625 C-55.12748978 46.85696554 -56.56554376 45.43019969 -58 44 C-63.97498148 48.13652564 -68.95940557 52.79966084 -73.96191406 58.03613281 C-75.27323404 59.39187535 -76.63306055 60.70035603 -78 62 C-78.66 62 -79.32 62 -80 62 C-78.73529082 57.8264597 -76.63227531 55.2218901 -73.79296875 52.0390625 C-71.68600747 49.64291045 -69.68462473 47.17583853 -67.6875 44.6875 C-67.01074219 43.84574219 -66.33398438 43.00398438 -65.63671875 42.13671875 C-63.97399181 40.1053765 -63.97399181 40.1053765 -63 38 C-60.27734375 37.06640625 -60.27734375 37.06640625 -57 37 C-53.94033703 39.32847751 -51.51681582 41.9858441 -48.87890625 44.77734375 C-46.12367004 47.21978348 -46.12367004 47.21978348 -42.5625 47.81640625 C-37.23195559 46.59482316 -35.44569723 43.36170455 -32.4375 39 C-31.89931641 38.25621094 -31.36113281 37.51242188 -30.80664062 36.74609375 C-29.72273622 35.2461057 -28.64745433 33.73984986 -27.58081055 32.22753906 C-23.48251277 26.45257861 -19.14029712 20.85385587 -14.8125 15.25 C-11.50746583 10.99733763 -11.50746583 10.99733763 -8.38671875 6.609375 C-7.92910156 6.07828125 -7.47148438 5.5471875 -7 5 C-6.01 5 -5.02 5 -4 5 C-3.814375 4.0409375 -3.814375 4.0409375 -3.625 3.0625 C-3.41875 2.381875 -3.2125 1.70125 -3 1 C-1 0 -1 0 0 0 Z " fill="#0F4CB4" transform="translate(104,27)"/>
<path d="M0 0 C0.66 0 1.32 0 2 0 C2 17.16 2 34.32 2 52 C-0.86633795 53.43316898 -3.37235501 53.13200361 -6.5625 53.125 C-8.32787109 53.12886719 -8.32787109 53.12886719 -10.12890625 53.1328125 C-13 53 -13 53 -14 52 C-17.39020587 20.40379888 -17.39020587 20.40379888 -9.39697266 9.98657227 C-6.7418725 7.11133272 -3.98325916 4.53557219 -1 2 C-0.67 1.34 -0.34 0.68 0 0 Z " fill="#0D2748" transform="translate(93,51)"/>
<path d="M0 0 C1.32 0.66 2.64 1.32 4 2 C4.02465881 5.96930989 4.04284023 9.93859034 4.05493164 13.90795898 C4.05997057 15.25920386 4.06680177 16.61044326 4.07543945 17.96166992 C4.08752419 19.90020434 4.09269828 21.838778 4.09765625 23.77734375 C4.10551147 25.52905884 4.10551147 25.52905884 4.11352539 27.31616211 C4 30 4 30 3 31 C0.66839945 31.09909302 -1.66629942 31.12970504 -4 31.125 C-5.27875 31.12757812 -6.5575 31.13015625 -7.875 31.1328125 C-11 31 -11 31 -12 30 C-14.07644984 15.55852556 -14.07644984 15.55852556 -10.81787109 9.97412109 C-7.67438817 6.10719522 -3.9574457 3.00341861 0 0 Z " fill="#0E2747" transform="translate(44,73)"/>
<path d="M0 0 C0.66 0.33 1.32 0.66 2 1 C2.05790353 4.29159316 2.09356261 7.58305603 2.125 10.875 C2.14175781 11.81214844 2.15851563 12.74929687 2.17578125 13.71484375 C2.18222656 14.61074219 2.18867187 15.50664063 2.1953125 16.4296875 C2.20578613 17.25710449 2.21625977 18.08452148 2.22705078 18.93701172 C2 21 2 21 0 23 C-2.96875 23.265625 -2.96875 23.265625 -6.5 23.25 C-7.6653125 23.25515625 -8.830625 23.2603125 -10.03125 23.265625 C-13 23 -13 23 -15 21 C-15.22705078 19.02880859 -15.22705078 19.02880859 -15.1953125 16.6484375 C-15.18886719 15.79765625 -15.18242188 14.946875 -15.17578125 14.0703125 C-15.15902344 13.18085937 -15.14226563 12.29140625 -15.125 11.375 C-15.11597656 10.4778125 -15.10695312 9.580625 -15.09765625 8.65625 C-15.0740497 6.43723414 -15.0411231 4.21874923 -15 2 C-14.4121875 2.15984375 -13.824375 2.3196875 -13.21875 2.484375 C-8.99407562 3.46616552 -5.3241993 3.81489187 -1.5625 1.5 C-1.046875 1.005 -0.53125 0.51 0 0 Z " fill="#0E284A" transform="translate(70,81)"/>
<path d="M0 0 C1.39456452 0.00667256 2.78911118 0.01863093 4.18359375 0.03515625 C4.89451172 0.03966797 5.60542969 0.04417969 6.33789062 0.04882812 C8.09899388 0.06064761 9.86005411 0.07858362 11.62109375 0.09765625 C13.18781336 3.23109546 12.9365291 5.63145185 12.62109375 9.09765625 C11.18578272 11.50977617 9.89023335 13.41803273 8.12109375 15.53515625 C7.69183594 16.07591797 7.26257813 16.61667969 6.8203125 17.17382812 C5.76893946 18.49388538 4.69704219 19.79755188 3.62109375 21.09765625 C0.24001561 20.4938923 -2.04203517 19.66666685 -4.37890625 17.09765625 C-4.70234243 14.24310944 -4.80356926 11.80913417 -4.69140625 8.97265625 C-4.68173828 8.23144531 -4.67207031 7.49023438 -4.66210938 6.7265625 C-4.52344025 0.13073527 -4.52344025 0.13073527 0 0 Z " fill="#0E284A" transform="translate(59.37890625,43.90234375)"/>
<path d="M0 0 C0.81559387 0.0028299 1.63118774 0.00565979 2.47149658 0.00857544 C5.06969028 0.01974692 7.66753595 0.04484575 10.265625 0.0703125 C12.02994293 0.08034623 13.79426628 0.08947139 15.55859375 0.09765625 C19.87773773 0.11967631 24.19662241 0.15418517 28.515625 0.1953125 C28.515625 0.5253125 28.515625 0.8553125 28.515625 1.1953125 C30.825625 1.5253125 33.135625 1.8553125 35.515625 2.1953125 C35.515625 2.5253125 35.515625 2.8553125 35.515625 3.1953125 C22.975625 3.1953125 10.435625 3.1953125 -2.484375 3.1953125 C-2.484375 3.8553125 -2.484375 4.5153125 -2.484375 5.1953125 C-4.340625 5.8759375 -4.340625 5.8759375 -6.234375 6.5703125 C-9.07682995 7.6337132 -11.81100546 8.74723733 -14.484375 10.1953125 C-14.484375 10.8553125 -14.484375 11.5153125 -14.484375 12.1953125 C-15.804375 12.1953125 -17.124375 12.1953125 -18.484375 12.1953125 C-20.68504921 13.12814546 -20.68504921 13.12814546 -22.484375 14.1953125 C-21.0100452 8.11370206 -15.84971178 4.4780898 -10.88525391 1.1105957 C-7.30999733 -0.25239361 -3.77083838 -0.049354 0 0 Z " fill="#122844" transform="translate(28.484375,3.8046875)"/>
<path d="M0 0 C4.13641581 1.35998783 6.46950419 3.57765553 9.5234375 6.59765625 C10.06871094 7.11779297 10.61398438 7.63792969 11.17578125 8.17382812 C12.51051962 9.45002534 13.83096921 10.74113804 15.1484375 12.03515625 C16.29892578 10.88466797 16.29892578 10.88466797 17.47265625 9.7109375 C20.03125 7.15234375 22.58984375 4.59375 25.1484375 2.03515625 C24.50121168 6.0803176 22.8621636 9.95798469 20.1484375 13.03515625 C14.3484375 14.63515625 14.3484375 14.63515625 11.1484375 13.03515625 C10.6534375 11.55015625 10.6534375 11.55015625 10.1484375 10.03515625 C9.1584375 9.70515625 8.1684375 9.37515625 7.1484375 9.03515625 C7.1484375 8.37515625 7.1484375 7.71515625 7.1484375 7.03515625 C4.6734375 6.54015625 4.6734375 6.54015625 2.1484375 6.03515625 C2.1484375 5.04515625 2.1484375 4.05515625 2.1484375 3.03515625 C-0.72521041 2.61769017 -0.72521041 2.61769017 -3.8515625 3.03515625 C-5.89488217 5.10613322 -5.89488217 5.10613322 -6.8515625 8.03515625 C-6.7896875 8.98390625 -6.7278125 9.93265625 -6.6640625 10.91015625 C-6.94648133 15.61713683 -9.7160381 17.73055946 -12.8515625 21.03515625 C-13.9653125 22.48921875 -13.9653125 22.48921875 -15.1015625 23.97265625 C-15.6790625 24.65328125 -16.2565625 25.33390625 -16.8515625 26.03515625 C-17.5115625 26.03515625 -18.1715625 26.03515625 -18.8515625 26.03515625 C-19.1196875 27.12828125 -19.3878125 28.22140625 -19.6640625 29.34765625 C-21.21661282 34.16873356 -21.21661282 34.16873356 -23.8515625 36.03515625 C-24.5115625 36.03515625 -25.1715625 36.03515625 -25.8515625 36.03515625 C-23.60186316 29.87256133 -20.04572434 24.44283022 -16.65722656 18.85986328 C-15.4790224 16.91421844 -14.31356148 14.96131084 -13.1484375 13.0078125 C-12.39660244 11.76385775 -11.64402313 10.52035245 -10.890625 9.27734375 C-10.21209473 8.15183105 -9.53356445 7.02631836 -8.83447266 5.86669922 C-6.26489622 2.1974124 -4.59115198 0.05660324 0 0 Z " fill="#2A66C5" transform="translate(45.8515625,55.96484375)"/>
<path d="M0 0 C1.4540625 0.0309375 1.4540625 0.0309375 2.9375 0.0625 C3.2675 1.0525 3.5975 2.0425 3.9375 3.0625 C5.93766466 4.27132096 5.93766466 4.27132096 7.9375 5.0625 C7.9375 5.7225 7.9375 6.3825 7.9375 7.0625 C9.2575 7.3925 10.5775 7.7225 11.9375 8.0625 C11.9375 9.0525 11.9375 10.0425 11.9375 11.0625 C14.9075 11.0625 17.8775 11.0625 20.9375 11.0625 C21.2675 10.0725 21.5975 9.0825 21.9375 8.0625 C22.5975 9.3825 23.2575 10.7025 23.9375 12.0625 C22.375 14.5625 22.375 14.5625 19.9375 17.0625 C16.625 17.8125 16.625 17.8125 12.9375 17.0625 C10.30574864 14.98683 8.15327574 12.56777407 5.9375 10.0625 C3.22532724 7.51470135 2.46770418 7.0930887 -1.3125 6.875 C-2.67375 6.9678125 -2.67375 6.9678125 -4.0625 7.0625 C-4.3925 8.0525 -4.7225 9.0425 -5.0625 10.0625 C-6.25 8.375 -6.25 8.375 -7.0625 6.0625 C-4.14303691 0.08455177 -4.14303691 0.08455177 0 0 Z " fill="#196AE4" transform="translate(45.0625,57.9375)"/>
<path d="M0 0 C1.32 0.66 2.64 1.32 4 2 C1.902651 4.63051272 -0.20401983 7.25340404 -2.3125 9.875 C-2.90740234 10.62136719 -3.50230469 11.36773437 -4.11523438 12.13671875 C-4.98051758 13.20986328 -4.98051758 13.20986328 -5.86328125 14.3046875 C-6.65665894 15.2944458 -6.65665894 15.2944458 -7.46606445 16.30419922 C-9.76355048 18.84412249 -11.47662788 19.93191907 -14.8828125 20.375 C-18.76835387 19.90756645 -20.09442703 18.69631318 -22.875 16 C-23.65617187 15.2575 -24.43734375 14.515 -25.2421875 13.75 C-25.82226562 13.1725 -26.40234375 12.595 -27 12 C-26.34 11.67 -25.68 11.34 -25 11 C-24.34 11.33 -23.68 11.66 -23 12 C-22.67 11.34 -22.34 10.68 -22 10 C-22 11.65 -22 13.3 -22 15 C-20.68 15 -19.36 15 -18 15 C-18 14.34 -18 13.68 -18 13 C-17.030625 12.71125 -16.06125 12.4225 -15.0625 12.125 C-11.89335797 11.35785318 -11.89335797 11.35785318 -11 9 C-8.36 9 -5.72 9 -3 9 C-3.33 7.68 -3.66 6.36 -4 5 C-2.68 5 -1.36 5 0 5 C-0.185625 4.360625 -0.37125 3.72125 -0.5625 3.0625 C-0.706875 2.381875 -0.85125 1.70125 -1 1 C-0.67 0.67 -0.34 0.34 0 0 Z " fill="#1049B3" transform="translate(77,63)"/>
<path d="M0 0 C0.66 0.99 1.32 1.98 2 3 C1.01 3 0.02 3 -1 3 C-2.47047336 6.91063224 -2.47047336 6.91063224 -3 11 C-3.99 11.33 -4.98 11.66 -6 12 C-6 13.32 -6 14.64 -6 16 C-7.32 16.33 -8.64 16.66 -10 17 C-10 17.99 -10 18.98 -10 20 C-10.99 20.33 -11.98 20.66 -13 21 C-13 21.99 -13 22.98 -13 24 C-15.31 24 -17.62 24 -20 24 C-16.82247465 19.72838167 -13.60923477 15.49304027 -10.3125 11.3125 C-8.43610898 8.9258623 -6.82880434 6.70199274 -5.3125 4.0625 C-3.81102625 1.70304125 -2.5839118 0.98010447 0 0 Z " fill="#0C4BB8" transform="translate(87,48)"/>
<path d="M0 0 C0.33 0 0.66 0 1 0 C1.08333357 4.8333472 0.95261487 9.23692563 0 14 C-3.07884573 12.25254702 -5.55961387 10.55489105 -8 8 C-12.68788333 13.12991699 -17.08695618 18.25271689 -21 24 C-21.66 22.68 -22.32 21.36 -23 20 C-21.68 19.67 -20.36 19.34 -19 19 C-19.268125 18.443125 -19.53625 17.88625 -19.8125 17.3125 C-19.874375 16.549375 -19.93625 15.78625 -20 15 C-17.625 12.4375 -17.625 12.4375 -15 10 C-14.67 9.01 -14.34 8.02 -14 7 C-13.01 7 -12.02 7 -11 7 C-10.34 6.34 -9.68 5.68 -9 5 C-8.34 5 -7.68 5 -7 5 C-6.319375 5.7734375 -6.319375 5.7734375 -5.625 6.5625 C-5.08875 7.036875 -4.5525 7.51125 -4 8 C-1.83700789 7.77242269 -1.83700789 7.77242269 0 7 C0 4.69 0 2.38 0 0 Z " fill="#1748A3" transform="translate(103,40)"/>
<path d="M0 0 C1.134375 0.020625 2.26875 0.04125 3.4375 0.0625 C4.0975 1.7125 4.7575 3.3625 5.4375 5.0625 C2.9625 3.5775 2.9625 3.5775 0.4375 2.0625 C-1.60565594 3.93589818 -3.64704259 5.81116634 -5.6875 7.6875 C-6.25726563 8.20957031 -6.82703125 8.73164062 -7.4140625 9.26953125 C-10.30942668 11.93458237 -13.13119929 14.63180927 -15.8671875 17.4609375 C-18.5625 20.0625 -18.5625 20.0625 -20.5625 20.0625 C-19.04380103 15.0507934 -16.03226566 11.83212195 -12.5625 8.0625 C-11.69625 7.0725 -10.83 6.0825 -9.9375 5.0625 C-7.5625 3.0625 -7.5625 3.0625 -5.25 3.25 C-4.693125 3.518125 -4.13625 3.78625 -3.5625 4.0625 C-3.8925 3.0725 -4.2225 2.0825 -4.5625 1.0625 C-3.5625 0.0625 -3.5625 0.0625 0 0 Z " fill="#134CA8" transform="translate(44.5625,68.9375)"/>
<path d="M0 0 C0.66 0.33 1.32 0.66 2 1 C2.05790353 4.29159316 2.09356261 7.58305603 2.125 10.875 C2.14175781 11.81214844 2.15851563 12.74929687 2.17578125 13.71484375 C2.18222656 14.61074219 2.18867187 15.50664063 2.1953125 16.4296875 C2.20578613 17.25710449 2.21625977 18.08452148 2.22705078 18.93701172 C2 21 2 21 0 23 C-2.96875 23.265625 -2.96875 23.265625 -6.5 23.25 C-7.6653125 23.25515625 -8.830625 23.2603125 -10.03125 23.265625 C-13 23 -13 23 -15 21 C-15.1953125 17.9609375 -15.1953125 17.9609375 -15.125 14.375 C-15.10695312 13.18648437 -15.08890625 11.99796875 -15.0703125 10.7734375 C-15.04710937 9.85820313 -15.02390625 8.94296875 -15 8 C-14.67 8 -14.34 8 -14 8 C-13.63597631 9.43503555 -13.28413409 10.87316506 -12.9375 12.3125 C-12.74027344 13.11300781 -12.54304688 13.91351563 -12.33984375 14.73828125 C-12 17 -12 17 -13 20 C-7.06 20.99 -7.06 20.99 -1 22 C-1 21.34 -1 20.68 -1 20 C-0.34 20 0.32 20 1 20 C1 14.39 1 8.78 1 3 C-0.36125 3.70125 -1.7225 4.4025 -3.125 5.125 C-6.6675283 6.72557361 -7.62136222 7.07971322 -11.5625 6.25 C-12.366875 5.8375 -13.17125 5.425 -14 5 C-14 4.34 -14 3.68 -14 3 C-12.98679688 3.05220703 -12.98679688 3.05220703 -11.953125 3.10546875 C-10.61507812 3.14607422 -10.61507812 3.14607422 -9.25 3.1875 C-8.36828125 3.22230469 -7.4865625 3.25710937 -6.578125 3.29296875 C-3.55328417 2.94923684 -2.24416398 1.99772541 0 0 Z " fill="#12243C" transform="translate(70,81)"/>
<path d="M0 0 C0 3.3 0 6.6 0 10 C-0.99 10.495 -0.99 10.495 -2 11 C-2.33 9.68 -2.66 8.36 -3 7 C-3.66 7 -4.32 7 -5 7 C-5.1546875 7.9590625 -5.1546875 7.9590625 -5.3125 8.9375 C-5.539375 9.618125 -5.76625 10.29875 -6 11 C-6.99 11.33 -7.98 11.66 -9 12 C-10.66710346 13.49985609 -10.66710346 13.49985609 -12 15 C-11.47731534 12.23723823 -10.89130413 9.6739124 -10 7 C-14.455 7.495 -14.455 7.495 -19 8 C-15.7859082 5.85727214 -12.47398867 4.37881715 -8.9375 2.875 C-8.30005859 2.59785156 -7.66261719 2.32070313 -7.00585938 2.03515625 C-2.24880696 0 -2.24880696 0 0 0 Z " fill="#2E6FD9" transform="translate(106,21)"/>
<path d="M0 0 C0.66 0 1.32 0 2 0 C2 17.16 2 34.32 2 52 C-0.03378518 47.93242964 -0.23032174 46.40705649 -0.16015625 42.01953125 C-0.1437207 40.2725293 -0.1437207 40.2725293 -0.12695312 38.49023438 C-0.10568359 37.27658203 -0.08441406 36.06292969 -0.0625 34.8125 C0.0497676 27.1076161 0.05884613 19.64175 -1 12 C-2.32 12.33 -3.64 12.66 -5 13 C-5.33 12.34 -5.66 11.68 -6 11 C-5.04867187 10.64808594 -5.04867187 10.64808594 -4.078125 10.2890625 C-1.81749261 9.17709092 -1.81749261 9.17709092 -1.171875 6.8359375 C-0.96304688 5.61777344 -0.96304688 5.61777344 -0.75 4.375 C-0.60046875 3.55773438 -0.4509375 2.74046875 -0.296875 1.8984375 C-0.19890625 1.27195313 -0.1009375 0.64546875 0 0 Z " fill="#0F223D" transform="translate(93,51)"/>
<path d="M0 0 C0 0.66 0 1.32 0 2 C-2.90600261 3.25664978 -4.79604584 4 -8 4 C-8 4.66 -8 5.32 -8 6 C-6.68 6 -5.36 6 -4 6 C-2.20703125 7.1171875 -2.20703125 7.1171875 -1 9 C-1.07421875 11.8828125 -1.07421875 11.8828125 -1.6875 15.125 C-1.87699219 16.20007813 -2.06648438 17.27515625 -2.26171875 18.3828125 C-2.50535156 19.24648438 -2.74898437 20.11015625 -3 21 C-3.66 21.33 -4.32 21.66 -5 22 C-5.33 21.01 -5.66 20.02 -6 19 C-6.66 19 -7.32 19 -8 19 C-8 19.99 -8 20.98 -8 22 C-8.66 22 -9.32 22 -10 22 C-10.061875 22.598125 -10.12375 23.19625 -10.1875 23.8125 C-11.3236757 26.87143458 -13.17330142 27.55041099 -16 29 C-14.00915437 24.31633428 -10.57949742 20.57750364 -7.36914062 16.68945312 C-6.16951107 15.18427393 -5.07581061 13.59602851 -4 12 C-5.24546405 8.26360784 -6.63404953 7.81243487 -10 6 C-9.67 5.01 -9.34 4.02 -9 3 C-2.88888889 0 -2.88888889 0 0 0 Z " fill="#2968C7" transform="translate(87,29)"/>
<path d="M0 0 C0.66 0.66 1.32 1.32 2 2 C1.77870194 4.87687481 1.36521506 6.53951144 -0.4375 8.8125 C-2 10 -2 10 -4 10 C-4.268125 11.093125 -4.53625 12.18625 -4.8125 13.3125 C-6.36505032 18.13357731 -6.36505032 18.13357731 -9 20 C-9.66 20 -10.32 20 -11 20 C-9.36047417 15.3606824 -6.93128948 11.36144142 -4.375 7.1875 C-3.95476563 6.49462891 -3.53453125 5.80175781 -3.1015625 5.08789062 C-2.0710533 3.38989252 -1.03598319 1.69466386 0 0 Z " fill="#2A61BA" transform="translate(31,72)"/>
<path d="M0 0 C1.32 0.66 2.64 1.32 4 2 C1.85900482 4.67058408 -0.28858042 7.33578975 -2.4375 10 C-3.04916016 10.763125 -3.66082031 11.52625 -4.29101562 12.3125 C-4.87431641 13.034375 -5.45761719 13.75625 -6.05859375 14.5 C-6.86768188 15.50546875 -6.86768188 15.50546875 -7.69311523 16.53125 C-8.34002319 17.25828125 -8.34002319 17.25828125 -9 18 C-9.33 18 -9.66 18 -10 18 C-10 16.35 -10 14.7 -10 13 C-9.01 12.67 -8.02 12.34 -7 12 C-7 11.01 -7 10.02 -7 9 C-5.68 9 -4.36 9 -3 9 C-3.33 7.68 -3.66 6.36 -4 5 C-2.68 5 -1.36 5 0 5 C-0.2784375 4.0409375 -0.2784375 4.0409375 -0.5625 3.0625 C-0.706875 2.381875 -0.85125 1.70125 -1 1 C-0.67 0.67 -0.34 0.34 0 0 Z " fill="#1A469C" transform="translate(77,63)"/>
<path d="M0 0 C1.13215962 3.39647886 1.49781615 5.44417039 1 9 C-0.83308264 11.05219747 -2.72997078 12.39206263 -5 14 C-5.96747771 10.887486 -6.25702664 9.51983845 -4.78515625 6.54296875 C-4.21667969 5.76566406 -3.64820313 4.98835938 -3.0625 4.1875 C-2.49660156 3.39730469 -1.93070313 2.60710938 -1.34765625 1.79296875 C-0.90292969 1.20128906 -0.45820312 0.60960937 0 0 Z " fill="#2468D2" transform="translate(38,61)"/>
<path d="M0 0 C0.33 0.99 0.66 1.98 1 3 C0.505 3.433125 0.01 3.86625 -0.5 4.3125 C-2.33218192 5.99740483 -2.33218192 5.99740483 -2 9 C-2.66 9 -3.32 9 -4 9 C-4.04125 9.7425 -4.0825 10.485 -4.125 11.25 C-5.34857383 15.09551776 -7.59346582 16.04305483 -11 18 C-11.66 17.67 -12.32 17.34 -13 17 C-12.31292969 16.10796875 -11.62585938 15.2159375 -10.91796875 14.296875 C-10.00779952 13.11459332 -9.097644 11.9323011 -8.1875 10.75 C-7.73568359 10.16347656 -7.28386719 9.57695313 -6.81835938 8.97265625 C-4.5268922 5.99542152 -2.24468847 3.01280445 0 0 Z " fill="#1253C2" transform="translate(97,32)"/>
<path d="M0 0 C1.134375 0.020625 2.26875 0.04125 3.4375 0.0625 C4.0975 1.7125 4.7575 3.3625 5.4375 5.0625 C3.7875 4.0725 2.1375 3.0825 0.4375 2.0625 C-2.5325 4.7025 -5.5025 7.3425 -8.5625 10.0625 C-8.8925 8.7425 -9.2225 7.4225 -9.5625 6.0625 C-8.9025 5.4025 -8.2425 4.7425 -7.5625 4.0625 C-6.2425 4.0625 -4.9225 4.0625 -3.5625 4.0625 C-3.8925 3.0725 -4.2225 2.0825 -4.5625 1.0625 C-3.5625 0.0625 -3.5625 0.0625 0 0 Z " fill="#19479F" transform="translate(44.5625,68.9375)"/>
<path d="M0 0 C0 3.3 0 6.6 0 10 C-0.99 10.495 -0.99 10.495 -2 11 C-2.33 9.68 -2.66 8.36 -3 7 C-3.66 7 -4.32 7 -5 7 C-5.33 8.32 -5.66 9.64 -6 11 C-6.66 10.67 -7.32 10.34 -8 10 C-7.34 8.68 -6.68 7.36 -6 6 C-5.34 6 -4.68 6 -4 6 C-4 5.34 -4 4.68 -4 4 C-4.66 3.34 -5.32 2.68 -6 2 C-2.25 0 -2.25 0 0 0 Z " fill="#2963C1" transform="translate(106,21)"/>
<path d="M0 0 C0.33 0 0.66 0 1 0 C1.08333357 4.8333472 0.95261487 9.23692563 0 14 C-3.53600465 12.08864614 -5.78972846 10.37357234 -8 7 C-7.13375 7.2784375 -7.13375 7.2784375 -6.25 7.5625 C-3.79307475 8.04023546 -2.35602466 7.75729364 0 7 C0 4.69 0 2.38 0 0 Z " fill="#1F4390" transform="translate(103,40)"/>
<path d="M0 0 C0.33 0 0.66 0 1 0 C1 1.65 1 3.3 1 5 C2.32 5.33 3.64 5.66 5 6 C5 6.66 5 7.32 5 8 C7.64 8 10.28 8 13 8 C11 10 11 10 8.1796875 10.375 C4.24711454 9.91120761 2.93709011 8.72687526 0.125 6 C-0.65617187 5.2575 -1.43734375 4.515 -2.2421875 3.75 C-2.82226562 3.1725 -3.40234375 2.595 -4 2 C-3.34 1.67 -2.68 1.34 -2 1 C-1.34 1.33 -0.68 1.66 0 2 C0 1.34 0 0.68 0 0 Z " fill="#204797" transform="translate(54,73)"/>
<path d="M0 0 C0.99 0 1.98 0 3 0 C3 3.96 3 7.92 3 12 C2.01 12 1.02 12 0 12 C-1.53166168 7.91556885 -0.63081652 4.20544343 0 0 Z " fill="#172E4B" transform="translate(4,95)"/>
<path d="M0 0 C3.25585266 1.17764884 4.80625792 2.35746198 6.9375 5.0625 C6.9375 5.7225 6.9375 6.3825 6.9375 7.0625 C5.2875 6.7325 3.6375 6.4025 1.9375 6.0625 C1.9375 5.0725 1.9375 4.0825 1.9375 3.0625 C-2.00977588 2.88307837 -4.6605513 2.96899311 -8.0625 5.0625 C-3.93085443 0.08022152 -3.93085443 0.08022152 0 0 Z " fill="#3570C8" transform="translate(46.0625,55.9375)"/>
<path d="M0 0 C0.33 0.66 0.66 1.32 1 2 C1.99 2.33 2.98 2.66 4 3 C3.01 3.33 2.02 3.66 1 4 C1 4.66 1 5.32 1 6 C-0.32 6 -1.64 6 -3 6 C-5.20067421 6.93283296 -5.20067421 6.93283296 -7 8 C-5.52071006 3.31558185 -5.52071006 3.31558185 -2.9375 1.75 C-2.298125 1.5025 -1.65875 1.255 -1 1 C-0.67 0.67 -0.34 0.34 0 0 Z " fill="#1F344C" transform="translate(13,10)"/>
<path d="M0 0 C2.72426311 2.35277269 3.8141763 4.62496331 5 8 C3.35 8.66 1.7 9.32 0 10 C-1.125 2.25 -1.125 2.25 0 0 Z " fill="#203752" transform="translate(118,13)"/>
<path d="M0 0 C0.66 1.32 1.32 2.64 2 4 C0.1875 6 0.1875 6 -2 8 C-2.99 8 -3.98 8 -5 8 C-3.62845496 5.04590299 -2.01136276 2.55991624 0 0 Z " fill="#143250" transform="translate(91,54)"/>
<path d="M0 0 C1.32 0.66 2.64 1.32 4 2 C2.02 4.64 0.04 7.28 -2 10 C-2.66 8.68 -3.32 7.36 -4 6 C-2.68 5.67 -1.36 5.34 0 5 C-0.2784375 4.0409375 -0.2784375 4.0409375 -0.5625 3.0625 C-0.706875 2.381875 -0.85125 1.70125 -1 1 C-0.67 0.67 -0.34 0.34 0 0 Z " fill="#214F9D" transform="translate(77,63)"/>
<path d="M0 0 C3.96 0 7.92 0 12 0 C11.67 0.66 11.34 1.32 11 2 C8.71484375 2.4140625 8.71484375 2.4140625 5.9375 2.625 C4.55884766 2.73714844 4.55884766 2.73714844 3.15234375 2.8515625 C2.44207031 2.90054688 1.73179688 2.94953125 1 3 C0.67 2.01 0.34 1.02 0 0 Z " fill="#0E233C" transform="translate(56,44)"/>
<path d="M0 0 C0.66 0.99 1.32 1.98 2 3 C1.125 5.6875 1.125 5.6875 0 8 C0.66 8 1.32 8 2 8 C2 8.99 2 9.98 2 11 C1.01 10.67 0.02 10.34 -1 10 C-2.25 3.375 -2.25 3.375 0 0 Z " fill="#1E3451" transform="translate(120,95)"/>
</svg>
